<?xml version="1.0" encoding="utf-8"?>
<!-- Generator: Adobe Illustrator 27.5.0, SVG Export Plug-In . SVG Version: 6.00 Build 0)  -->
<svg version="1.1" id="Layer_1" xmlns="http://www.w3.org/2000/svg" xmlns:xlink="http://www.w3.org/1999/xlink" x="0px" y="0px"
	 viewBox="0 0 750 500" style="enable-background:new 0 0 750 500;" xml:space="preserve">
<rect style="fill:#FFFFFF;" width="750" height="500"/>
<g>
	<defs>
		<rect id="SVGID_1_" width="750" height="500"/>
	</defs>
	<clipPath id="SVGID_00000128469529685123932240000006837284537802937276_">
		<use xlink:href="#SVGID_1_"  style="overflow:visible;"/>
	</clipPath>
	
		<rect style="clip-path:url(#SVGID_00000128469529685123932240000006837284537802937276_);fill:#FFFFFF;" width="750" height="500"/>
	<g style="opacity:0.5;clip-path:url(#SVGID_00000128469529685123932240000006837284537802937276_);">
		<g>
			<polygon style="fill:#f7f7f7;" points="349.397,808.875 373.641,385.568 389.395,809.276 349.397,808.875 			"/>
		</g>
		<g>
			<polygon style="fill:#f7f7f7;" points="109.445,742.42 314.955,371.553 145.308,760.135 109.445,742.42 			"/>
		</g>
		<g>
			<polygon style="fill:#f7f7f7;" points="-77.909,578.435 268.162,333.463 -53.284,609.957 -77.909,578.435 			"/>
		</g>
		<g>
			<polygon style="fill:#f7f7f7;" points="-175.56,349.4 242.528,278.842 -167.051,388.485 -175.56,349.4 			"/>
		</g>
		<g>
			<polygon style="fill:#f7f7f7;" points="-164.166,100.678 243.133,218.509 -173.457,139.584 -164.166,100.678 			"/>
		</g>
		<g>
			<polygon style="fill:#f7f7f7;" points="-45.983,-118.471 269.856,164.412 -71.235,-87.449 -45.983,-118.471 			"/>
		</g>
		<g>
			<polygon style="fill:#f7f7f7;" points="155.581,-264.638 317.403,127.268 119.37,-247.644 155.581,-264.638 			"/>
		</g>
		<g>
			<polygon style="fill:#f7f7f7;" points="400.603,-308.875 376.359,114.432 360.605,-309.276 400.603,-308.875 			"/>
		</g>
		<g>
			<polygon style="fill:#f7f7f7;" points="640.554,-242.42 435.045,128.447 604.691,-260.136 640.554,-242.42 			"/>
		</g>
		<g>
			<polygon style="fill:#f7f7f7;" points="827.91,-78.436 481.839,166.537 803.285,-109.957 827.91,-78.436 			"/>
		</g>
		<g>
			<polygon style="fill:#f7f7f7;" points="925.56,150.6 507.472,221.158 917.051,111.516 925.56,150.6 			"/>
		</g>
		<g>
			<polygon style="fill:#f7f7f7;" points="914.165,399.322 506.867,281.492 923.457,360.417 914.165,399.322 			"/>
		</g>
		<g>
			<polygon style="fill:#f7f7f7;" points="795.983,618.47 480.144,335.588 821.234,587.448 795.983,618.47 			"/>
		</g>
		<g>
			<polygon style="fill:#f7f7f7;" points="594.42,764.638 432.597,372.733 630.631,747.645 594.42,764.638 			"/>
		</g>
	</g>
	<g style="opacity:0.5;clip-path:url(#SVGID_00000128469529685123932240000006837284537802937276_);">
		<g>
			<polygon style="fill:#f7f7f7;" points="251.178,-279.29 352.442,149.41 260.936,-281.478 251.178,-279.29 			"/>
		</g>
		<g>
			<polygon style="fill:#f7f7f7;" points="33.789,-173.15 311.031,169.159 41.631,-179.355 33.789,-173.15 			"/>
		</g>
		<g>
			<polygon style="fill:#f7f7f7;" points="-116.018,16.8 282.291,204.919 -111.645,7.807 -116.018,16.8 			"/>
		</g>
		<g>
			<polygon style="fill:#f7f7f7;" points="-168.573,252.938 271.912,249.608 -168.535,242.938 -168.573,252.938 			"/>
		</g>
		<g>
			<polygon style="fill:#f7f7f7;" points="-113.467,488.496 281.952,294.376 -117.772,479.47 -113.467,488.496 			"/>
		</g>
		<g>
			<polygon style="fill:#f7f7f7;" points="38.386,676.815 310.42,330.354 30.591,670.551 38.386,676.815 			"/>
		</g>
		<g>
			<polygon style="fill:#f7f7f7;" points="256.909,780.598 351.68,350.416 247.168,778.336 256.909,780.598 			"/>
		</g>
		<g>
			<polygon style="fill:#f7f7f7;" points="498.822,779.29 397.558,350.59 489.064,781.478 498.822,779.29 			"/>
		</g>
		<g>
			<polygon style="fill:#f7f7f7;" points="716.21,673.15 438.968,330.841 708.368,679.355 716.21,673.15 			"/>
		</g>
		<g>
			<polygon style="fill:#f7f7f7;" points="866.018,483.199 467.709,295.08 861.645,492.192 866.018,483.199 			"/>
		</g>
		<g>
			<polygon style="fill:#f7f7f7;" points="918.573,247.061 478.088,250.391 918.535,257.061 918.573,247.061 			"/>
		</g>
		<g>
			<polygon style="fill:#f7f7f7;" points="863.466,11.504 468.047,205.624 867.771,20.53 863.466,11.504 			"/>
		</g>
		<g>
			<polygon style="fill:#f7f7f7;" points="711.614,-176.816 439.579,169.646 719.408,-170.551 711.614,-176.816 			"/>
		</g>
		<g>
			<polygon style="fill:#f7f7f7;" points="493.09,-280.599 398.319,149.584 502.831,-278.337 493.09,-280.599 			"/>
		</g>
	</g>
	<g style="opacity:0.5;clip-path:url(#SVGID_00000128469529685123932240000006837284537802937276_);">
		<g>
			<polygon style="fill:#f7f7f7;" points="226.828,409.739 486.985,644.099 507.926,676.949 			"/>
		</g>
	</g>
</g>
</svg>
